<svg width="243" height="60" viewBox="0 0 243 60" fill="none" xmlns="http://www.w3.org/2000/svg">
<path d="M70.1549 41C69.4149 41 68.7449 40.82 68.1449 40.46C67.5449 40.08 67.0549 39.59 66.6749 38.99C66.3149 38.39 66.1349 37.72 66.1349 36.98V27.62C66.1349 26.88 66.3149 26.21 66.6749 25.61C67.0549 25.01 67.5449 24.53 68.1449 24.17C68.7449 23.79 69.4149 23.6 70.1549 23.6H83.7749V27.17H70.2749C70.1149 27.17 69.9749 27.23 69.8549 27.35C69.7549 27.45 69.7049 27.58 69.7049 27.74V36.86C69.7049 37.02 69.7549 37.16 69.8549 37.28C69.9749 37.38 70.1149 37.43 70.2749 37.43H83.8049V41H70.1549ZM92.9678 41C92.2278 41 91.5578 40.82 90.9578 40.46C90.3578 40.08 89.8678 39.59 89.4878 38.99C89.1278 38.39 88.9478 37.72 88.9478 36.98V27.62C88.9478 26.88 89.1278 26.21 89.4878 25.61C89.8678 25.01 90.3578 24.53 90.9578 24.17C91.5578 23.79 92.2278 23.6 92.9678 23.6H102.598C103.358 23.6 104.038 23.79 104.638 24.17C105.238 24.53 105.718 25.01 106.078 25.61C106.438 26.21 106.618 26.88 106.618 27.62V36.98C106.618 37.72 106.438 38.39 106.078 38.99C105.718 39.59 105.238 40.08 104.638 40.46C104.038 40.82 103.358 41 102.598 41H92.9678ZM93.0878 37.43H102.478C102.638 37.43 102.768 37.38 102.868 37.28C102.988 37.16 103.048 37.02 103.048 36.86V27.74C103.048 27.58 102.988 27.45 102.868 27.35C102.768 27.23 102.638 27.17 102.478 27.17H93.0878C92.9278 27.17 92.7878 27.23 92.6678 27.35C92.5678 27.45 92.5178 27.58 92.5178 27.74V36.86C92.5178 37.02 92.5678 37.16 92.6678 37.28C92.7878 37.38 92.9278 37.43 93.0878 37.43ZM111.849 41V23.6H115.419V41H111.849ZM111.849 21.5V17.9H115.419V21.5H111.849ZM121.011 41V23.6H134.691C135.411 23.6 136.071 23.79 136.671 24.17C137.291 24.53 137.781 25.01 138.141 25.61C138.501 26.21 138.681 26.88 138.681 27.62V41H135.111V27.74C135.111 27.58 135.051 27.45 134.931 27.35C134.831 27.23 134.711 27.17 134.571 27.17H125.151C125.011 27.17 124.881 27.23 124.761 27.35C124.641 27.45 124.581 27.58 124.581 27.74V41H121.011ZM143.414 47.9V23.6H157.094C157.814 23.6 158.474 23.79 159.074 24.17C159.694 24.53 160.184 25.01 160.544 25.61C160.904 26.21 161.084 26.88 161.084 27.62V36.98C161.084 37.72 160.904 38.39 160.544 38.99C160.184 39.59 159.694 40.08 159.074 40.46C158.474 40.82 157.814 41 157.094 41H146.984V47.9H143.414ZM147.554 37.43H156.974C157.114 37.43 157.234 37.38 157.334 37.28C157.454 37.16 157.514 37.02 157.514 36.86V27.74C157.514 27.58 157.454 27.45 157.334 27.35C157.234 27.23 157.114 27.17 156.974 27.17H147.554C147.414 27.17 147.284 27.23 147.164 27.35C147.044 27.45 146.984 27.58 146.984 27.74V36.86C146.984 37.02 147.044 37.16 147.164 37.28C147.284 37.38 147.414 37.43 147.554 37.43ZM169.426 41C168.686 41 168.006 40.82 167.386 40.46C166.786 40.08 166.306 39.59 165.946 38.99C165.586 38.39 165.406 37.72 165.406 36.98V23.6H168.976V36.86C168.976 37.02 169.026 37.16 169.126 37.28C169.246 37.38 169.386 37.43 169.546 37.43H178.936C179.096 37.43 179.226 37.38 179.326 37.28C179.446 37.16 179.506 37.02 179.506 36.86V23.6H183.076V36.98C183.076 37.72 182.896 38.39 182.536 38.99C182.176 39.59 181.696 40.08 181.096 40.46C180.496 40.82 179.816 41 179.056 41H169.426ZM192.355 41C191.615 41 190.945 40.82 190.345 40.46C189.745 40.08 189.255 39.59 188.875 38.99C188.515 38.39 188.335 37.72 188.335 36.98V17.87H191.935V36.86C191.935 37.02 191.985 37.16 192.085 37.28C192.205 37.38 192.335 37.43 192.475 37.43H195.715V41H192.355ZM203.945 41C203.205 41 202.535 40.82 201.935 40.46C201.335 40.08 200.845 39.59 200.465 38.99C200.105 38.39 199.925 37.72 199.925 36.98V36.41H203.495V36.86C203.495 37.02 203.545 37.16 203.645 37.28C203.765 37.38 203.905 37.43 204.065 37.43H213.455C213.615 37.43 213.745 37.38 213.845 37.28C213.965 37.16 214.025 37.02 214.025 36.86V34.64C214.025 34.5 213.965 34.38 213.845 34.28C213.745 34.16 213.615 34.1 213.455 34.1H203.945C203.205 34.1 202.535 33.92 201.935 33.56C201.335 33.18 200.845 32.69 200.465 32.09C200.105 31.49 199.925 30.82 199.925 30.08V27.62C199.925 26.88 200.105 26.21 200.465 25.61C200.845 25.01 201.335 24.53 201.935 24.17C202.535 23.79 203.205 23.6 203.945 23.6H213.575C214.335 23.6 215.015 23.79 215.615 24.17C216.215 24.53 216.695 25.01 217.055 25.61C217.435 26.21 217.625 26.88 217.625 27.62V28.19H214.025V27.74C214.025 27.58 213.965 27.45 213.845 27.35C213.745 27.23 213.615 27.17 213.455 27.17H204.065C203.905 27.17 203.765 27.23 203.645 27.35C203.545 27.45 203.495 27.58 203.495 27.74V29.96C203.495 30.1 203.545 30.23 203.645 30.35C203.765 30.45 203.905 30.5 204.065 30.5H213.575C214.335 30.5 215.015 30.69 215.615 31.07C216.215 31.43 216.695 31.91 217.055 32.51C217.435 33.11 217.625 33.78 217.625 34.52V36.98C217.625 37.72 217.435 38.39 217.055 38.99C216.695 39.59 216.215 40.08 215.615 40.46C215.015 40.82 214.335 41 213.575 41H203.945ZM226.174 41C225.434 41 224.764 40.82 224.164 40.46C223.564 40.08 223.074 39.59 222.694 38.99C222.334 38.39 222.154 37.72 222.154 36.98V27.62C222.154 26.88 222.334 26.21 222.694 25.61C223.074 25.01 223.564 24.53 224.164 24.17C224.764 23.79 225.434 23.6 226.174 23.6H235.804C236.564 23.6 237.244 23.79 237.844 24.17C238.444 24.53 238.924 25.01 239.284 25.61C239.644 26.21 239.824 26.88 239.824 27.62V34.1H225.724V36.86C225.724 37.02 225.774 37.16 225.874 37.28C225.994 37.38 226.134 37.43 226.294 37.43H239.824V41H226.174ZM225.724 30.83H236.254V27.74C236.254 27.58 236.194 27.45 236.074 27.35C235.974 27.23 235.844 27.17 235.684 27.17H226.294C226.134 27.17 225.994 27.23 225.874 27.35C225.774 27.45 225.724 27.58 225.724 27.74V30.83Z" fill="url(#paint0_linear_234_2)"/>
<rect x="1.5" y="1.5" width="57" height="57" rx="28.5" stroke="url(#paint1_linear_234_2)" stroke-width="3"/>
<rect x="6.5" y="6.5" width="47" height="47" rx="23.5" stroke="url(#paint2_linear_234_2)" stroke-width="3"/>
<path d="M16.4766 20.0026C16.7816 20.0184 17.0703 20.1064 17.2964 20.2524C17.5225 20.3984 17.6729 20.594 17.7235 20.8079L20.9999 34.6572L25.0754 24.5722C25.1572 24.3701 25.3297 24.1925 25.5666 24.0661C25.8035 23.9397 26.092 23.8714 26.3885 23.8715C26.685 23.8717 26.9734 23.9402 27.21 24.0669C27.4467 24.1935 27.6187 24.3713 27.7002 24.5735L30.4633 31.431L32.0487 29.5121C32.1692 29.3662 32.3415 29.2453 32.5485 29.1613C32.7554 29.0773 32.9898 29.0332 33.2282 29.0333H36.6084C36.9346 28.2981 37.6213 27.6699 38.5442 27.2625C39.4672 26.8551 40.5654 26.6954 41.64 26.8124C42.7146 26.9294 43.6947 27.3152 44.4027 27.9002C45.1107 28.4851 45.5 29.2304 45.5 30.0012C45.5 30.772 45.1107 31.5173 44.4027 32.1022C43.6947 32.6872 42.7146 33.073 41.64 33.19C40.5654 33.307 39.4672 33.1473 38.5442 32.7399C37.6213 32.3325 36.9346 31.7043 36.6084 30.9691H34.0091L31.206 34.363C31.0706 34.5264 30.8706 34.6581 30.6307 34.7416C30.3908 34.8252 30.1216 34.857 29.8564 34.8331C29.5913 34.8092 29.3419 34.7306 29.1391 34.6071C28.9364 34.4836 28.7892 34.3207 28.7159 34.1385L26.386 28.3571L21.9628 39.3003C21.8771 39.511 21.6931 39.6947 21.4409 39.8216C21.1887 39.9484 20.8832 40.0108 20.5745 39.9985C20.2658 39.9862 19.9721 39.9 19.7415 39.7539C19.5109 39.6079 19.3571 39.4106 19.3052 39.1945L15.956 25.0458L13.566 30.298C13.4774 30.493 13.3039 30.663 13.0703 30.7836C12.8368 30.9041 12.5553 30.9691 12.2664 30.9691H6.36518C6.00311 30.9691 5.65587 30.8671 5.39985 30.6856C5.14383 30.5041 5 30.2579 5 30.0012C5 29.7445 5.14383 29.4983 5.39985 29.3168C5.65587 29.1353 6.00311 29.0333 6.36518 29.0333H11.2725L15.0768 20.6711C15.1707 20.4645 15.3597 20.2864 15.6136 20.1651C15.8674 20.0439 16.1714 19.9867 16.4766 20.0026Z" fill="url(#paint3_linear_234_2)"/>
<rect x="35" y="24" width="12" height="12" rx="6" fill="#FFCC00"/>
<path d="M40.7778 34V27H41.2222V34H40.7778ZM42.2737 29.1C42.2412 28.8229 42.1093 28.6078 41.878 28.4547C41.6468 28.3016 41.3631 28.225 41.0271 28.225C40.7814 28.225 40.5664 28.2651 40.3821 28.3453C40.1996 28.4255 40.0569 28.5358 39.9539 28.6762C39.8528 28.8165 39.8022 28.976 39.8022 29.1547C39.8022 29.3042 39.8374 29.4327 39.9079 29.5402C39.9801 29.646 40.0723 29.7344 40.1843 29.8055C40.2963 29.8747 40.4137 29.9322 40.5366 29.9777C40.6594 30.0215 40.7724 30.057 40.8753 30.0844L41.439 30.2375C41.5836 30.2758 41.7444 30.3286 41.9214 30.3961C42.1003 30.4635 42.271 30.5556 42.4336 30.6723C42.598 30.7871 42.7335 30.9348 42.8401 31.1152C42.9467 31.2957 43 31.5172 43 31.7797C43 32.0823 42.9214 32.3557 42.7642 32.6C42.6089 32.8443 42.3812 33.0384 42.0813 33.1824C41.7832 33.3264 41.421 33.3984 40.9946 33.3984C40.5971 33.3984 40.2529 33.3337 39.9621 33.2043C39.673 33.0749 39.4453 32.8944 39.2791 32.6629C39.1147 32.4314 39.0217 32.1625 39 31.8563H39.6938C39.7118 32.0677 39.7823 32.2427 39.9051 32.3812C40.0298 32.518 40.187 32.6201 40.3767 32.6875C40.5682 32.7531 40.7742 32.7859 40.9946 32.7859C41.2511 32.7859 41.4815 32.744 41.6856 32.6602C41.8898 32.5745 42.0515 32.456 42.1707 32.3047C42.29 32.1516 42.3496 31.9729 42.3496 31.7688C42.3496 31.5828 42.2981 31.4315 42.1951 31.3148C42.0921 31.1982 41.9566 31.1034 41.7886 31.0305C41.6206 30.9576 41.439 30.8937 41.2439 30.8391L40.561 30.6422C40.1274 30.5164 39.7841 30.3368 39.5312 30.1035C39.2782 29.8702 39.1518 29.5648 39.1518 29.1875C39.1518 28.874 39.2358 28.6005 39.4038 28.3672C39.5736 28.132 39.8013 27.9497 40.0867 27.8203C40.374 27.6891 40.6947 27.6234 41.0488 27.6234C41.4065 27.6234 41.7245 27.6882 42.0027 27.8176C42.2809 27.9452 42.5014 28.1202 42.664 28.3426C42.8284 28.565 42.9151 28.8174 42.9241 29.1H42.2737Z" fill="white"/>
<defs>
<linearGradient id="paint0_linear_234_2" x1="63" y1="29.5" x2="243" y2="29.5" gradientUnits="userSpaceOnUse">
<stop stop-color="#FF9500"/>
<stop offset="1" stop-color="#EEFF00"/>
</linearGradient>
<linearGradient id="paint1_linear_234_2" x1="30" y1="0" x2="30" y2="60" gradientUnits="userSpaceOnUse">
<stop stop-color="#FFCC00"/>
<stop offset="1" stop-color="#FF6A00"/>
</linearGradient>
<linearGradient id="paint2_linear_234_2" x1="30" y1="5" x2="30" y2="55" gradientUnits="userSpaceOnUse">
<stop stop-color="#FFCC00"/>
<stop offset="1" stop-color="#FF6A00"/>
</linearGradient>
<linearGradient id="paint3_linear_234_2" x1="45.5" y1="30" x2="14.5" y2="30" gradientUnits="userSpaceOnUse">
<stop stop-color="#FFCC00"/>
<stop offset="1" stop-color="#FF9400"/>
</linearGradient>
</defs>
</svg>
